<?xml version="1.0" encoding="UTF-8"?>
<svg width="50px" height="27px" viewBox="0 0 50 27" version="1.1" xmlns="http://www.w3.org/2000/svg" xmlns:xlink="http://www.w3.org/1999/xlink">
    <title>Group 6</title>
    <defs>
        <polygon id="path-1" points="0 0 50 0 50 26.8115942 0 26.8115942"></polygon>
    </defs>
    <g id="Symbols" stroke="none" stroke-width="1" fill="none" fill-rule="evenodd">
        <g id="Cromwell-header" transform="translate(-98.000000, -20.000000)">
            <g id="Group-6" transform="translate(98.000000, 20.000000)">
                <path d="M36.294042,22.4284035 C36.2995723,22.4376231 36.2930102,22.4622087 36.2398946,22.5275362 L36.1956522,22.4456134 C36.200192,22.4456134 36.2907403,22.4228717 36.294042,22.4284035" id="Fill-1" fill="#FFFFFF"></path>
                <g id="Group-5">
                    <mask id="mask-2" fill="white">
                        <use xlink:href="#path-1"></use>
                    </mask>
                    <g id="Clip-4"></g>
                    <path d="M34.4468635,7.19944012 C34.2805948,7.37982542 34.0852034,7.53525975 33.8360569,7.62106051 L32.8192005,7.97101053 L32.222891,8.17609219 L30.7517464,8.68236764 L31.1143046,10.8196215 C31.3213707,10.7973438 31.5270257,10.7743024 31.731141,10.7493514 C31.7446119,10.7120523 31.7546188,10.6593497 31.7701423,10.6313435 L33.0493595,10.3935456 C33.0426882,10.4247343 33.039096,10.4682712 33.0331945,10.5025151 C33.3431522,10.4146775 33.6472084,10.3046896 33.940488,10.1481095 C33.9923187,10.1204853 34.0220828,10.1892277 34.0401722,10.3190746 C34.7395016,9.93691744 35.4221527,9.31810805 36.0791451,8.33572744 C35.358519,7.93027426 34.8154515,7.55333647 34.4468635,7.19944012 L34.4468635,7.19944012 Z M24.6665165,4.56062113 C24.6774215,4.59062458 24.7114193,4.60313665 24.7576051,4.60237061 C24.7136003,4.60173224 24.6790893,4.58998621 24.670237,4.55934438 L24.6665165,4.56062113 Z M26.69792,10.0770757 C27.2976933,10.5076071 27.9281289,10.9600343 28.528672,11.3909477 C28.6859602,11.3247512 28.8431201,11.266702 29.0014346,11.2141268 C28.8183594,10.4783279 28.6500379,9.7794463 28.5801178,9.42949629 L26.69792,10.0770757 Z M22.7965065,15.2225757 C22.669624,15.5283524 22.7568638,15.7998851 22.9504591,15.9017257 C23.1439261,16.0036937 23.4441335,15.936097 23.7438277,15.5639966 C24.0600719,15.1712735 24.0419824,14.763147 23.9724472,14.4746833 C23.2531041,14.539734 22.9239023,14.9148896 22.7965065,15.2225757 L22.7965065,15.2225757 Z M0.85660465,12.7399547 C2.18136608,12.2732698 3.21669678,11.9503076 3.25223415,11.9391051 L4.92903368,11.3611593 L4.84076757,11.1083398 L4.9142799,10.9754377 L10.2773442,9.13250342 L10.3802358,9.15669058 L10.4817162,9.4471911 L24.4386668,4.63636496 L24.6634374,4.55896604 C24.6638223,4.55998445 24.6661316,4.55947525 24.6665165,4.56049365 L25.0810336,4.41753481 C25.0805205,4.4166437 25.0828298,4.41549799 25.0821883,4.41460689 L25.6394964,4.22238261 L26.4959856,3.92628085 C26.7288388,3.84595402 26.963873,3.83971628 27.192749,3.86950468 C27.7989371,3.79592479 28.5566401,4.20366939 28.7973192,4.88281939 C28.8976449,5.16619106 28.8955922,5.44459801 28.8547948,5.71065677 L30.9481642,4.9903886 L31.0251404,5.02845155 L31.4771194,4.87301722 L31.5381872,4.78734375 L32.7039927,4.3860915 C32.9782847,4.29163427 33.2537315,4.30410976 33.5182732,4.36012213 C33.6794102,4.3717065 33.8399057,4.41893512 33.9997597,4.48780487 C34.3729663,3.66238621 34.9555483,2.76211465 35.089487,1.6068595 C35.0956451,1.55313854 37.3590037,1.90270666 38.3650834,5.21812981 C38.978071,4.63305513 39.6239018,4.22289182 40.3324683,4.01615525 C39.0370862,0.986140591 43.2742444,-0.602192023 43.0895014,0.211769565 C41.5720427,1.43194814 44.74757,0.888500845 44.4140062,3.85282827 C44.6468594,3.79414258 44.8916439,3.77644776 45.1365567,3.8575384 C45.8172834,4.08286089 46.1849734,4.81318583 45.9578934,5.4887714 C45.9400606,5.54172855 45.9011876,5.5790277 45.8774532,5.62791122 C46.1994706,5.99326464 46.4618313,6.40686508 46.6795458,6.84528918 C47.0152906,6.56981015 47.3038233,6.25066694 47.5963331,6.04914971 C47.9166826,5.7303884 48.3324827,5.68646961 48.878501,6.24201048 C49.0796656,6.44340042 49.299946,6.73173683 49.5465266,7.13057037 C49.903055,7.93918532 50.0498231,8.14121176 49.985163,9.04848486 C49.9407734,9.6736593 49.5040614,10.1985207 48.9589412,10.5077344 C48.5332625,10.7841046 48.001998,11.0035712 47.4018397,11.1484396 C47.3402587,11.7187473 47.2199192,12.2466639 47.0459528,12.690562 C46.2189712,14.8014645 45.0429023,16.3241099 43.6357762,17.3860536 L43.8475892,17.2996163 C44.918329,19.458384 45.7445409,19.176158 45.5071974,20.4459839 C45.446771,20.7693281 45.4299645,21.0097993 45.4028946,21.4907419 C45.3957101,21.494561 45.3853183,21.4957067 45.3781339,21.4993984 L45.382111,21.5002895 C45.382111,21.5002895 45.4014833,22.3139965 45.5233624,22.9279684 C45.5995689,23.3102529 45.5197702,23.9186236 45.1964699,23.6624943 C44.9705446,23.4835093 44.8709886,23.3848512 44.7990158,23.8624839 C43.7430298,23.9662341 42.7043635,22.9679409 42.4264792,22.5384279 C42.3442429,22.7316705 42.2600822,22.9441357 42.1754083,23.2082849 C42.1654014,23.2094306 42.1541115,23.209176 42.1441046,23.2103217 L42.1954221,23.2327267 C42.1954221,23.2327267 42.1470554,24.0451606 42.2173603,24.6672799 C42.2613651,25.0544017 42.1057448,25.6182172 41.8635261,25.2854528 C41.6181002,24.9479782 41.6254129,25.4972814 41.1785657,25.5699701 C39.9537451,25.5890653 38.9318853,23.6478547 38.925214,23.4005092 C38.9190559,23.1739137 39.5396128,22.3057219 39.644942,22.1599625 C39.6425044,22.1543612 39.638399,22.1502876 39.6360898,22.1446864 C39.6360898,22.1446864 39.8054375,21.7765323 39.8314812,21.5633034 L40.4871906,22.2709688 C39.8593209,21.3554211 39.0503004,20.9895585 38.3484052,20.6989307 C37.5470824,21.4316743 36.7025245,21.8880479 35.8741316,22.1617447 C35.9287848,22.1984073 35.9724047,22.249455 36.0302652,22.2819167 C35.6262681,22.4244936 35.4481963,22.4508449 34.9574727,22.5352453 C34.9096191,22.5031655 34.8695914,22.4537728 34.823534,22.4172375 C34.2771308,22.5068573 33.7521527,22.5349907 33.2681004,22.5166594 C32.7810972,23.6562566 32.3617049,23.6986477 31.8682871,24.3811076 C31.8441678,24.4569789 31.6224762,25.1614617 31.5402399,25.7483186 C31.4860999,26.1341675 31.2102683,26.683216 30.9892182,26.3364485 C30.8346242,26.0938131 30.7730432,25.9684218 30.5475027,26.3964072 C29.8430417,26.2293885 29.3447487,25.7661407 29.0617326,25.3643793 C29.0664795,25.547056 29.0757167,25.7339336 29.0954739,25.908845 C29.1393504,26.2959668 28.9838583,26.8597823 28.7416397,26.5270179 C28.4960854,26.189416 28.5033982,26.7387192 28.0566793,26.8115942 C26.8317304,26.8307577 25.9869159,25.3365004 25.9801164,25.0891549 C25.9733168,24.841682 26.7213977,23.818947 26.7213977,23.818947 C27.6117565,19.9688604 25.6152489,19.9771349 25.2893827,17.0678015 C25.2000903,16.2702617 25.2473024,15.4808691 25.5133836,14.7063708 C25.1150315,14.5786881 24.7727437,14.5085453 24.4772832,14.4813029 C24.5552858,15.1250633 24.3609207,15.7874096 23.8515945,16.2680976 C23.4499067,16.6471995 22.9503308,16.6958284 22.5370966,16.5215535 C22.0888381,16.3325118 21.7425733,15.881103 21.7332078,15.3048121 C21.719737,14.4670452 22.4930918,13.6204946 23.2777365,13.2916766 C23.2578509,13.274109 23.249127,13.2534863 23.2279585,13.2360461 C22.4462646,12.5921584 21.8366126,12.5926676 20.9553627,12.8817678 C19.7266933,13.2848023 20.6546421,12.2861272 22.0574062,12.3607255 C22.808951,12.400698 23.3825525,12.7057108 23.7957867,13.1237667 C25.1161861,12.7523029 26.0100088,12.9604398 26.4141342,13.1310229 C26.4632707,13.0719553 26.5210029,13.0135242 26.5737316,12.9545839 C26.4229864,12.8030959 26.3539644,12.686361 26.4256806,12.6321309 C26.5269044,12.5553685 26.6321053,12.4882809 26.7349969,12.4149556 L24.034798,10.9935144 L11.0495444,15.4615194 C11.0614757,15.4654657 11.0699431,15.4711943 11.0820027,15.4750133 L10.6212998,15.6209001 C10.2115295,15.7620767 9.8394776,15.6607452 9.46165245,15.4428062 C9.3084697,15.5003462 9.14592149,15.5408278 8.97234003,15.5408278 C8.57847816,15.5408278 7.73635788,15.0121474 7.60870558,14.3317244 C7.28591847,14.3084284 7.00610976,14.3851908 6.8098203,14.3382168 L4.67911742,15.0726153 C4.69092045,15.0765617 4.69913125,15.0821629 4.71106257,15.0858546 L4.14926417,15.2666218 C3.7225591,15.4136543 3.33665145,15.2957737 2.94240471,15.0587396 C2.7676686,15.1374115 2.57715235,15.1865496 2.37265209,15.1865496 C1.66280268,15.1865496 1.09984963,14.650613 1.01594551,13.9687897 C0.569226613,13.9684078 0.224629556,14.1252425 0.0895362197,13.739139 C-0.0636465376,13.3013514 -0.134079815,13.0891409 0.85660465,12.7399547 L0.85660465,12.7399547 Z" id="Fill-3" fill="#FFFFFF" mask="url(#mask-2)"></path>
                </g>
            </g>
        </g>
    </g>
</svg>